<?xml version="1.0" ?><svg id="Layer_1" style="enable-background:new 0 0 2048 2048;" version="1.1" viewBox="0 0 2048 2048" xml:space="preserve" xmlns="http://www.w3.org/2000/svg" xmlns:xlink="http://www.w3.org/1999/xlink"><style type="text/css">
	.st0{fill:#465A65;}
	.st1{fill:#CFD8DD;}
</style><g><g><g><g><path class="st0" d="M946.74,640.45c-6.34,0-12.68-2.42-17.52-7.26L683.54,387.51c-9.67-9.67-9.67-25.36,0-35.04      c9.68-9.67,25.36-9.67,35.04,0l245.69,245.69c9.67,9.67,9.67,25.36,0,35.04C959.42,638.03,953.08,640.45,946.74,640.45z"/></g></g><g><g><path class="st0" d="M1101.27,640.44c-6.34,0-12.68-2.42-17.52-7.26c-9.67-9.67-9.67-25.36,0-35.04l245.68-245.68      c9.68-9.67,25.36-9.67,35.04,0c9.67,9.67,9.67,25.36,0,35.04l-245.68,245.68C1113.95,638.02,1107.61,640.44,1101.27,640.44z"/></g></g></g><path class="st1" d="M1146.16,689.92c0-30.69-11.44-60.45-32.66-82.62c-0.63-0.66-1.26-1.31-1.91-1.95   c-22.41-22.41-53.38-36.27-87.59-36.27c-34.21,0-65.18,13.86-87.59,36.28c-0.64,0.64-1.27,1.28-1.89,1.93   c-21.24,22.17-32.68,51.94-32.68,82.64v58.46h244.31V689.92z"/><path class="st0" d="M1732,1702.78H316c-33.14,0-60-26.86-60-60V732.29c0-33.14,26.86-60,60-60h1416c33.14,0,60,26.86,60,60v910.49   C1792,1675.92,1765.14,1702.78,1732,1702.78z"/><rect class="st1" height="1102.45" transform="matrix(-1.836970e-16 1 -1 -1.836970e-16 2118.636 256.4424)" width="782.75" x="539.72" y="636.31"/><circle class="st1" cx="1637.16" cy="900.76" r="51.81"/><circle class="st1" cx="1637.16" cy="1090.47" r="51.81"/><g><g><path class="st1" d="M1688.97,1308.19h-103.62c-13.68,0-24.77-11.09-24.77-24.77s11.09-24.77,24.77-24.77h103.62     c13.68,0,24.77,11.09,24.77,24.77S1702.66,1308.19,1688.97,1308.19z"/></g></g><g><g><path class="st1" d="M1688.97,1429.55h-103.62c-13.68,0-24.77-11.09-24.77-24.77s11.09-24.77,24.77-24.77h103.62     c13.68,0,24.77,11.09,24.77,24.77S1702.66,1429.55,1688.97,1429.55z"/></g></g><g><g><path class="st1" d="M1688.97,1550.9h-103.62c-13.68,0-24.77-11.09-24.77-24.77c0-13.68,11.09-24.77,24.77-24.77h103.62     c13.68,0,24.77,11.09,24.77,24.77C1713.75,1539.81,1702.66,1550.9,1688.97,1550.9z"/></g></g></g></svg>